<!DOCTYPE svg PUBLIC "-//W3C//DTD SVG 1.1//EN" "http://www.w3.org/Graphics/SVG/1.1/DTD/svg11.dtd">
<!-- Uploaded to: SVG Repo, www.svgrepo.com, Transformed by: SVG Repo Mixer Tools -->
<svg fill="#ffffff" height="64px" width="64px" version="1.1" id="Layer_1" xmlns="http://www.w3.org/2000/svg" xmlns:xlink="http://www.w3.org/1999/xlink" viewBox="0 0 503.608 503.608" xml:space="preserve">
<g id="SVGRepo_bgCarrier" stroke-width="0"/>
<g id="SVGRepo_tracerCarrier" stroke-linecap="round" stroke-linejoin="round"/>
<g id="SVGRepo_iconCarrier"> <g transform="translate(0 -1)"> <g> <g> <path d="M107.044,174.912l63.824-54.625c14.126-12.17,23.821-27.572,28.042-44.569c2.845-11.457,2.073-18.86,1.737-21.026 c-3.005-30.628-27.724-53.685-57.621-53.685c-18.256,0-33.624,10.794-43.537,24.106C89.552,11.802,74.184,1,55.937,1 C26.467,1,3.788,23.066,0.699,54.693c-0.336,2.157-1.1,9.56,1.737,21.026c4.222,16.98,13.908,32.39,28.059,44.586l63.782,54.583 c1.847,1.595,4.121,2.392,6.387,2.392S105.189,176.49,107.044,174.912z"/> <path d="M461.293,177.264c-9.443,0-18.163,3.139-25.18,8.41v-8.41c0-23.141-18.826-41.967-41.967-41.967 c-9.443,0-18.163,3.139-25.18,8.41v-0.017c0-23.141-18.826-41.967-41.967-41.967c-9.443,0-18.163,3.139-25.18,8.41V42.969 c0-23.141-18.826-41.967-41.967-41.967s-41.967,18.827-41.967,41.967V234.13c-18.717-31.878-61.633-48.514-93.948-36.344 c-4.717,1.779-8.771,4.306-11.407,6.06c-12.59,8.335-12.246,18.591-12.019,22.318c-0.806,4.558,0.134,5.64,11.608,18.902 c14.798,17.106,45.602,52.686,65.049,87.678c0.739,1.192,13.522,21.857,30.351,43.629c6.186,3.425,12.54,6.899,18.491,10.156 c25.843,14.126,41.942,23.032,47.566,27.665c3.584,2.946,4.096,8.234,1.15,11.81c-1.662,2.014-4.062,3.064-6.48,3.064 c-1.88,0-3.769-0.63-5.33-1.914c-4.113-3.383-20.279-12.38-36.637-21.344v14.949c0,46.239,37.611,83.85,83.851,83.85h84.018 c36.377,0,73.887-30.183,81.912-65.922c2.199-9.795,5.17-17.223,8.368-20.908c0.445-0.52,0.906-1.209,1.36-1.796 c-21.252,7.646-38.744,12.708-39.172,12.817c-0.705,0.185-1.41,0.269-2.107,0.269c-3.735,0-7.143-2.501-8.125-6.287 c-1.167-4.482,1.528-9.065,6.018-10.232c13.555-3.517,34.866-10.819,54.658-18.768c3.643-10.911,6.203-24.5,6.203-40.255V219.231 C503.26,196.09,484.434,177.264,461.293,177.264z"/> </g> </g> </g> </g>
</svg>