<!DOCTYPE svg PUBLIC "-//W3C//DTD SVG 1.1//EN" "http://www.w3.org/Graphics/SVG/1.1/DTD/svg11.dtd">
<!-- Uploaded to: SVG Repo, www.svgrepo.com, Transformed by: SVG Repo Mixer Tools -->
<svg fill="#ffffff" height="64px" width="64px" version="1.1" id="Layer_1" xmlns="http://www.w3.org/2000/svg" xmlns:xlink="http://www.w3.org/1999/xlink" viewBox="0 0 503.607 503.607" xml:space="preserve">
<g id="SVGRepo_bgCarrier" stroke-width="0"/>
<g id="SVGRepo_tracerCarrier" stroke-linecap="round" stroke-linejoin="round"/>
<g id="SVGRepo_iconCarrier"> <g> <g> <path d="M441.462,259.542c-14.798-17.106-45.602-52.686-65.049-87.678c-0.739-1.192-13.522-21.857-30.351-43.629 c-6.186-3.425-12.54-6.899-18.491-10.156c-25.843-14.126-41.942-23.032-47.566-27.665c-3.584-2.938-4.096-8.234-1.15-11.81 c1.662-2.014,4.062-3.064,6.48-3.064c1.88,0,3.769,0.63,5.33,1.914c4.104,3.383,20.279,12.38,36.637,21.345V83.85 c0-46.231-37.619-83.85-83.85-83.85h-84.018c-36.386,0-73.887,30.183-81.912,65.922c-2.199,9.795-5.17,17.223-8.368,20.908 c-0.445,0.52-0.906,1.209-1.36,1.796c21.244-7.638,38.744-12.699,39.164-12.817c0.714-0.185,1.419-0.269,2.115-0.269 c3.735,0,7.143,2.501,8.125,6.287c1.167,4.482-1.528,9.065-6.018,10.232c-13.555,3.525-34.866,10.819-54.658,18.768 c-3.643,10.911-6.203,24.5-6.203,40.255v134.295c0,23.141,18.826,41.967,41.967,41.967c9.434,0,18.155-3.131,25.18-8.41v8.41 c0,23.141,18.826,41.967,41.967,41.967c9.434,0,18.163-3.131,25.18-8.41v0.017c0,23.141,18.827,41.967,41.967,41.967 c9.434,0,18.163-3.131,25.18-8.41v67.164c0,23.141,18.826,41.967,41.967,41.967c23.141,0,41.967-18.826,41.967-41.967V270.479 c18.717,31.887,61.633,48.514,93.948,36.344c4.717-1.779,8.771-4.306,11.407-6.052c12.59-8.343,12.246-18.6,12.019-22.327 C453.876,273.886,452.936,272.804,441.462,259.542z"/> </g> </g> </g>
</svg>