<!DOCTYPE svg PUBLIC "-//W3C//DTD SVG 1.1//EN" "http://www.w3.org/Graphics/SVG/1.1/DTD/svg11.dtd">
<!-- Uploaded to: SVG Repo, www.svgrepo.com, Transformed by: SVG Repo Mixer Tools -->
<svg fill="#ffffff" height="64px" width="64px" version="1.1" id="Capa_1" xmlns="http://www.w3.org/2000/svg" xmlns:xlink="http://www.w3.org/1999/xlink" viewBox="0 0 490 490" xml:space="preserve">
<g id="SVGRepo_bgCarrier" stroke-width="0"/>
<g id="SVGRepo_tracerCarrier" stroke-linecap="round" stroke-linejoin="round"/>
<g id="SVGRepo_iconCarrier"> <g> <g> <path d="M147,154.4h81.3V64.2C195.2,70,165.7,104.6,147,154.4z"/> <path d="M278.3,78.1c-8.8-6.7-19.2-12-30.5-14v90.2h30.3L278.3,78.1z"/> <path d="M317.7,105.4V68.8c0-27.2,22.2-49.4,49.4-49.4c27.2,0,49.4,22.2,49.4,49.4c0,5.4,4.3,9.7,9.7,9.7c5.4,0,9.7-4.3,9.7-9.7 c0-38.1-30.7-68.8-68.8-68.8s-69.2,30.7-68.8,68.8l-0.4,147.4h167.6V105.4H317.7z"/> <path d="M126,267.2h102.3v-93.3h-87.9C131.8,201.8,126.8,233.7,126,267.2z"/> <path d="M106.2,287H24.5c1.6,33.8,10.9,65.3,26.4,93.3h68.4C111.6,352.3,106.9,320.4,106.2,287z"/> <path d="M356.6,380.3H425c15.6-28,24.9-59.5,26.4-93.3h-82.1C368.7,320.4,364,352.3,356.6,380.3z"/> <path d="M140.4,380.3h87.9V287H126C126.8,320.4,131.8,352.3,140.4,380.3z"/> <path d="M350,287H247.7v93.3h87.9C344.2,352.3,349.2,320.4,350,287z"/> <path d="M119,173.8H50.9c-15.6,28-24.9,59.5-26.4,93.3h81.7C106.9,233.7,111.6,201.8,119,173.8z"/> <path d="M303.3,480.7c44.7-14.4,82.8-43.2,109.3-80.5h-62.2C338.7,433.6,322.8,461.6,303.3,480.7z"/> <path d="M367.5,236.1c1.2,10.5,1.9,21,1.9,31.1h82.1c-0.4-10.5-1.9-21-3.9-31.1H367.5z"/> <path d="M63,400.2c26.4,37.7,64.6,66.1,109.3,80.5c-19.1-19.4-35.4-47.1-47.1-80.5H63z"/> <path d="M228.3,490v-89.8H147C165.7,449.6,195.2,484.2,228.3,490z"/> <path d="M172.3,73.9c-44.3,14-82.4,42.8-108.9,80.5h61.8C136.9,120.9,152.8,92.9,172.3,73.9z"/> <path d="M247.7,400.2V490c33.1-5.8,62.6-40.4,81.3-89.8H247.7z"/> <path d="M348.1,236.1h-59.9c-5.4,0-9.7-4.3-9.7-9.7v-52.5h-30.7v93.3H350C349.6,256.7,349.2,246.2,348.1,236.1z"/> </g> </g> </g>
</svg>