<!DOCTYPE svg PUBLIC "-//W3C//DTD SVG 1.1//EN" "http://www.w3.org/Graphics/SVG/1.1/DTD/svg11.dtd">
<!-- Uploaded to: SVG Repo, www.svgrepo.com, Transformed by: SVG Repo Mixer Tools -->
<svg fill="#ffffff" height="64px" width="64px" version="1.1" id="Layer_1" xmlns="http://www.w3.org/2000/svg" xmlns:xlink="http://www.w3.org/1999/xlink" viewBox="0 0 512 512" enable-background="new 0 0 512 512" xml:space="preserve">
<g id="SVGRepo_bgCarrier" stroke-width="0"/>
<g id="SVGRepo_tracerCarrier" stroke-linecap="round" stroke-linejoin="round"/>
<g id="SVGRepo_iconCarrier"> <path d="M448,0H64C28.6,0,0,28.6,0,64v256c0,35.4,28.6,64,64,64h128l-42.7,128l192-128H448c35.4,0,64-28.6,64-64V64 C512,28.6,483.4,0,448,0z M373.3,256L320,309.3l-64-64l-64,64L138.7,256l64-64l-64-64L192,74.7l64,64l64-64l53.3,53.3l-64,64 L373.3,256z"/> </g>
</svg>